<svg xmlns="http://www.w3.org/2000/svg" width="1200" height="800" viewBox="0 0 1200 800"><title>H1 英雄卡概念样例</title><defs><linearGradient id="a0" x2="1" y2="1"><stop stop-color="#807065"/><stop offset="1" stop-color="#c6ab91"/></linearGradient><linearGradient id="a1" x2="1" y2="1"><stop stop-color="#737596"/><stop offset="1" stop-color="#b5b0cf"/></linearGradient><linearGradient id="a2" x2="1" y2="1"><stop stop-color="#47706d"/><stop offset="1" stop-color="#95b8a5"/></linearGradient><linearGradient id="a3" x2="1" y2="1"><stop stop-color="#a06c55"/><stop offset="1" stop-color="#dfae80"/></linearGradient><linearGradient id="a4" x2="1" y2="1"><stop stop-color="#43607f"/><stop offset="1" stop-color="#9cbacf"/></linearGradient></defs><rect x="0" y="0" width="1200" height="800" rx="0" fill="#faf9f5" stroke="none"/><rect x="20" y="18" width="8" height="8" rx="4" fill="#e58c82" stroke="none"/><rect x="37" y="18" width="8" height="8" rx="4" fill="#debf79" stroke="none"/><rect x="54" y="18" width="8" height="8" rx="4" fill="#87ad89" stroke="none"/><rect x="0" y="49" width="1200" height="2" rx="1" fill="#e4e1d8" stroke="none"/><rect x="17" y="94" width="52" height="99" rx="26" fill="#e8e6dec9" stroke="#d6d3c7"/><rect x="17" y="211" width="52" height="269" rx="26" fill="#e8e6dec9" stroke="#d6d3c7"/><rect x="17" y="526" width="52" height="49" rx="26" fill="#e8e6dec9" stroke="#d6d3c7"/><text x="43" y="130" fill="#282822" font-size="19" font-family="-apple-system,Arial,sans-serif" text-anchor="middle">⌕</text><text x="43" y="168" fill="#282822" font-size="19" font-family="-apple-system,Arial,sans-serif" text-anchor="middle">⌂</text><text x="43" y="247" fill="#282822" font-size="19" font-family="-apple-system,Arial,sans-serif" text-anchor="middle">▦</text><text x="43" y="285" fill="#866632" font-size="19" font-family="-apple-system,Arial,sans-serif" text-anchor="middle">♫</text><text x="43" y="323" fill="#282822" font-size="19" font-family="-apple-system,Arial,sans-serif" text-anchor="middle">▣</text><text x="43" y="361" fill="#282822" font-size="19" font-family="-apple-system,Arial,sans-serif" text-anchor="middle">▷</text><text x="43" y="399" fill="#282822" font-size="19" font-family="-apple-system,Arial,sans-serif" text-anchor="middle">◎</text><text x="43" y="437" fill="#282822" font-size="19" font-family="-apple-system,Arial,sans-serif" text-anchor="middle">▤</text><text x="43" y="557" fill="#282822" font-size="19" font-family="-apple-system,Arial,sans-serif" text-anchor="middle">⚙</text><text x="117" y="99" fill="#866632" font-size="29" font-family="-apple-system,Arial,sans-serif" text-anchor="start">歌曲</text><text x="117" y="126" fill="#77776d" font-size="12" font-family="-apple-system,Arial,sans-serif" text-anchor="start">84 首歌曲 · 标题 A–Z · 英雄卡</text><rect x="957" y="76" width="89" height="32" rx="16" fill="#282822" stroke="none"/><text x="1001.5" y="97" fill="#faf9f5" font-size="13" font-family="-apple-system,Arial,sans-serif" text-anchor="middle">▶ 播放</text><rect x="1060" y="76" width="90" height="32" rx="16" fill="#eeece4" stroke="none"/><text x="1105" y="97" fill="#282822" font-size="13" font-family="-apple-system,Arial,sans-serif" text-anchor="middle">随机</text><rect x="1025" y="119" width="125" height="32" rx="16" fill="#eeece4" stroke="none"/><text x="1087.5" y="140" fill="#282822" font-size="13" font-family="-apple-system,Arial,sans-serif" text-anchor="middle">卡组 / 封面墙</text><defs><clipPath id="clip0-213"><rect x="213" y="213" width="222" height="271" rx="16"/></clipPath></defs><g transform="rotate(-2 324 348.5)"><rect x="213" y="219" width="222" height="271" rx="16" fill="#00000018" stroke="none"/><g clip-path="url(#clip0-213)"><rect x="213" y="213" width="222" height="222" rx="0" fill="url(#a0)" stroke="none"/><circle cx="357.3" cy="297.36" r="46.62" fill="#fff" opacity=".13"/><path d="M213 412.8Q324 235.2 435 368.4V435H213Z" fill="#111" opacity=".25"/><text x="227" y="416" fill="#fff" font-size="14.874" font-family="-apple-system,Arial,sans-serif" text-anchor="start">STILL / WATER</text><rect x="213" y="435" width="222" height="49" rx="0" fill="#eeece4" stroke="none"/><text x="225" y="458" fill="#282822" font-size="13" font-family="-apple-system,Arial,sans-serif" text-anchor="start">Still Water</text></g><rect x="213" y="213" width="222" height="271" rx="16" fill="none" stroke="#d6d2c6"/></g><defs><clipPath id="clip4-833"><rect x="833" y="213" width="222" height="271" rx="16"/></clipPath></defs><g transform="rotate(2 944 348.5)"><rect x="833" y="219" width="222" height="271" rx="16" fill="#00000018" stroke="none"/><g clip-path="url(#clip4-833)"><rect x="833" y="213" width="222" height="222" rx="0" fill="url(#a4)" stroke="none"/><circle cx="977.3" cy="297.36" r="46.62" fill="#fff" opacity=".13"/><path d="M833 412.8Q944 235.2 1055 368.4V435H833Z" fill="#111" opacity=".25"/><text x="847" y="416" fill="#fff" font-size="14.874" font-family="-apple-system,Arial,sans-serif" text-anchor="start">FIRST / LIGHT</text><rect x="833" y="435" width="222" height="49" rx="0" fill="#eeece4" stroke="none"/><text x="845" y="458" fill="#282822" font-size="13" font-family="-apple-system,Arial,sans-serif" text-anchor="start">First Light</text></g><rect x="833" y="213" width="222" height="271" rx="16" fill="none" stroke="#d6d2c6"/></g><defs><clipPath id="clip1-368"><rect x="368" y="213" width="222" height="271" rx="16"/></clipPath></defs><g transform="rotate(-2 479 348.5)"><rect x="368" y="219" width="222" height="271" rx="16" fill="#00000018" stroke="none"/><g clip-path="url(#clip1-368)"><rect x="368" y="213" width="222" height="222" rx="0" fill="url(#a1)" stroke="none"/><circle cx="512.3" cy="297.36" r="46.62" fill="#fff" opacity=".13"/><path d="M368 412.8Q479 235.2 590 368.4V435H368Z" fill="#111" opacity=".25"/><text x="382" y="416" fill="#fff" font-size="14.874" font-family="-apple-system,Arial,sans-serif" text-anchor="start">AFTER / HOURS</text><rect x="368" y="435" width="222" height="49" rx="0" fill="#eeece4" stroke="none"/><text x="380" y="458" fill="#282822" font-size="13" font-family="-apple-system,Arial,sans-serif" text-anchor="start">After Hours</text></g><rect x="368" y="213" width="222" height="271" rx="16" fill="none" stroke="#d6d2c6"/></g><defs><clipPath id="clip3-678"><rect x="678" y="213" width="222" height="271" rx="16"/></clipPath></defs><g transform="rotate(2 789 348.5)"><rect x="678" y="219" width="222" height="271" rx="16" fill="#00000018" stroke="none"/><g clip-path="url(#clip3-678)"><rect x="678" y="213" width="222" height="222" rx="0" fill="url(#a3)" stroke="none"/><circle cx="822.3" cy="297.36" r="46.62" fill="#fff" opacity=".13"/><path d="M678 412.8Q789 235.2 900 368.4V435H678Z" fill="#111" opacity=".25"/><text x="692" y="416" fill="#fff" font-size="14.874" font-family="-apple-system,Arial,sans-serif" text-anchor="start">OPEN / SKY</text><rect x="678" y="435" width="222" height="49" rx="0" fill="#eeece4" stroke="none"/><text x="690" y="458" fill="#282822" font-size="13" font-family="-apple-system,Arial,sans-serif" text-anchor="start">Open Sky</text></g><rect x="678" y="213" width="222" height="271" rx="16" fill="none" stroke="#d6d2c6"/></g><defs><clipPath id="clip2-523"><rect x="523" y="199" width="222" height="308" rx="16"/></clipPath></defs><g transform="rotate(0 634 353)"><rect x="523" y="205" width="222" height="308" rx="16" fill="#00000018" stroke="none"/><g clip-path="url(#clip2-523)"><rect x="523" y="199" width="222" height="222" rx="0" fill="url(#a2)" stroke="none"/><circle cx="667.3" cy="283.36" r="46.62" fill="#fff" opacity=".13"/><path d="M523 398.8Q634 221.2 745 354.4V421H523Z" fill="#111" opacity=".25"/><text x="537" y="402" fill="#fff" font-size="14.874" font-family="-apple-system,Arial,sans-serif" text-anchor="start">NORTH / BOUND</text><rect x="523" y="421" width="222" height="86" rx="0" fill="#eeece4" stroke="none"/><text x="535" y="444" fill="#282822" font-size="15" font-family="-apple-system,Arial,sans-serif" text-anchor="start">Northbound</text><text x="535" y="464" fill="#77776d" font-size="11" font-family="-apple-system,Arial,sans-serif" text-anchor="start">Lumen · Studio North</text><text x="535" y="482" fill="#77776d" font-size="10" font-family="-apple-system,Arial,sans-serif" text-anchor="start">Original Sessions</text></g><rect x="523" y="199" width="222" height="308" rx="16" fill="none" stroke="#866632"/><rect x="706" y="456" width="29" height="32" rx="16" fill="#eeece4" stroke="none"/><text x="720.5" y="477" fill="#282822" font-size="13" font-family="-apple-system,Arial,sans-serif" text-anchor="middle">▶</text><rect x="699" y="211" width="32" height="32" rx="16" fill="#eeece4" stroke="none"/><text x="715" y="232" fill="#282822" font-size="13" font-family="-apple-system,Arial,sans-serif" text-anchor="middle">•••</text></g><rect x="119" y="401" width="37" height="32" rx="16" fill="#eeece4" stroke="none"/><text x="137.5" y="422" fill="#282822" font-size="13" font-family="-apple-system,Arial,sans-serif" text-anchor="middle">‹</text><rect x="1113" y="401" width="37" height="32" rx="16" fill="#eeece4" stroke="none"/><text x="1131.5" y="422" fill="#282822" font-size="13" font-family="-apple-system,Arial,sans-serif" text-anchor="middle">›</text><rect x="363" y="584" width="540" height="2" rx="1" fill="#dcd5c5" stroke="none"/><rect x="363" y="584" width="184" height="2" rx="1" fill="#866632" stroke="none"/><rect x="539" y="578" width="16" height="16" rx="8" fill="#866632" stroke="none"/><text x="634" y="615" fill="#77776d" font-size="12" font-family="-apple-system,Arial,sans-serif" text-anchor="middle">12 / 84  ·  拖动、滚轮、方向键共用同一焦点</text><rect x="604" y="627" width="60" height="32" rx="16" fill="#eeece4" stroke="none"/><text x="634" y="648" fill="#282822" font-size="13" font-family="-apple-system,Arial,sans-serif" text-anchor="middle">⌃</text><rect x="295" y="711" width="714" height="60" rx="30" fill="#f1efe8f5" stroke="#d6d3c7"/><text x="320" y="746" fill="#282822" font-size="18" font-family="-apple-system,Arial,sans-serif" text-anchor="start">⤨   ◀   ▶   ▶   ↻</text><text x="546" y="739" fill="#282822" font-size="13" font-family="-apple-system,Arial,sans-serif" text-anchor="start">Northbound</text><text x="546" y="756" fill="#77776d" font-size="11" font-family="-apple-system,Arial,sans-serif" text-anchor="start">Lumen</text><text x="831" y="747" fill="#282822" font-size="15" font-family="-apple-system,Arial,sans-serif" text-anchor="start">歌词   ≡   ◖</text><text x="117" y="789" fill="#77776d" font-size="11" font-family="-apple-system,Arial,sans-serif" text-anchor="start">H1 · 精修原版 · 概念样例 / 尚未实现</text></svg>